<svg width="48.000000" height="48.000000" viewBox="0 0 48 48" fill="none" xmlns="http://www.w3.org/2000/svg" xmlns:xlink="http://www.w3.org/1999/xlink">
	<desc>
			Created with Pixso.
	</desc>
	<defs>
		<clipPath id="clip20_670">
			<rect id="Telegram" width="48.000000" height="48.000000" fill="white" fill-opacity="0"/>
		</clipPath>
	</defs>
	<g clip-path="url(#clip20_670)">
		<path id="path" d="M41.41 7.3C41.41 7.3 45.3 5.79 44.98 9.47C44.87 10.98 43.9 16.29 43.14 22.02L40.55 39.01C40.55 39.01 40.33 41.5 38.39 41.93C36.45 42.37 33.54 40.42 33 39.98C32.56 39.66 24.9 34.79 22.2 32.41C21.45 31.76 20.58 30.46 22.31 28.95L33.64 18.13C34.94 16.83 36.23 13.8 30.84 17.48L15.73 27.76C15.73 27.76 14 28.84 10.76 27.86L3.75 25.7C3.75 25.7 1.16 24.08 5.58 22.45C16.38 17.37 29.65 12.17 41.41 7.3Z" fill="#808080" fill-opacity="1.000000" fill-rule="nonzero"/>
	</g>
</svg>
