<svg width="32.000000" height="32.000000" viewBox="0 0 32 32" fill="none" xmlns="http://www.w3.org/2000/svg" xmlns:xlink="http://www.w3.org/1999/xlink">
	<desc>
			Created with Pixso.
	</desc>
	<defs>
		<clipPath id="clip13_125">
			<rect id="Tiktok" width="32.000000" height="32.000000" fill="white" fill-opacity="0"/>
		</clipPath>
	</defs>
	<g clip-path="url(#clip13_125)">
		<path id="path" d="M14.23 12.76C10.31 12.57 7.58 13.97 6.05 16.95C3.75 21.44 5.65 28.77 13.31 28.77C20.98 28.77 21.2 21.37 21.2 20.59C21.2 20.07 21.2 17.18 21.2 11.91C22.84 12.95 24.22 13.58 25.35 13.79C26.47 14 27.19 14.09 27.49 14.07L27.49 9.75C26.45 9.63 25.55 9.39 24.79 9.03C23.66 8.5 21.4 7.04 21.4 4.88C21.4 4.89 21.4 4.34 21.4 3.22L16.65 3.22C16.64 13.76 16.64 19.55 16.65 20.59C16.67 22.15 15.47 24.32 13.02 24.32C10.57 24.32 9.36 22.15 9.36 20.74C9.36 19.89 9.66 18.64 10.88 17.72C11.6 17.17 12.61 16.95 14.23 16.95C14.23 16.45 14.23 15.05 14.23 12.76Z" fill="#000000" fill-opacity="0" fill-rule="nonzero"/>
		<path id="path" d="M6.05 16.95C3.75 21.44 5.65 28.77 13.31 28.77C20.98 28.77 21.2 21.37 21.2 20.59C21.2 20.07 21.2 17.18 21.2 11.91C22.84 12.95 24.22 13.58 25.35 13.79C26.47 14 27.19 14.09 27.49 14.07L27.49 9.75C26.45 9.63 25.55 9.39 24.79 9.03C23.66 8.5 21.4 7.04 21.4 4.88C21.4 4.89 21.4 4.34 21.4 3.22L16.65 3.22C16.64 13.76 16.64 19.55 16.65 20.59C16.67 22.15 15.47 24.32 13.02 24.32C10.57 24.32 9.36 22.15 9.36 20.74C9.36 19.89 9.66 18.64 10.88 17.72C11.6 17.17 12.61 16.95 14.23 16.95C14.23 16.45 14.23 15.05 14.23 12.76C10.31 12.57 7.58 13.97 6.05 16.95Z" stroke="#808080" stroke-opacity="1.000000" stroke-width="1.500000" stroke-linejoin="round"/>
	</g>
</svg>
